<svg width="24" height="24" viewBox="0 0 24 24" fill="none" xmlns="http://www.w3.org/2000/svg">
<path d="M5 1.99999H19C19.5523 1.99999 20 2.44771 20 2.99999V21C20 21.5523 19.5523 22 19 22H5C4.44772 22 4 21.5523 4 21V2.99999C4 2.44771 4.44772 1.99999 5 1.99999Z" fill="#C61F1F"/>
<path d="M2.75 5.99999L2.75 5.24999L1.25 5.24999L1.25 5.99999L2.75 5.99999ZM1.25 5.99999L1.25 18L2.75 18L2.75 5.99999L1.25 5.99999Z" fill="#C61F1F"/>
<path d="M22.75 5.99999L22.75 5.24999L21.25 5.24999L21.25 5.99999L22.75 5.99999ZM21.25 5.99999L21.25 18L22.75 18L22.75 5.99999L21.25 5.99999Z" fill="#C61F1F"/>
</svg>
